<?xml version="1.0" standalone="no"?>
<!DOCTYPE svg PUBLIC "-//W3C//DTD SVG 20010904//EN"
 "http://www.w3.org/TR/2001/REC-SVG-20010904/DTD/svg10.dtd">
<svg version="1.0" xmlns="http://www.w3.org/2000/svg"
 width="799.000000pt" height="475.000000pt" viewBox="0 0 799.000000 475.000000"
 preserveAspectRatio="xMidYMid meet">

<g transform="translate(0.000000,475.000000) scale(0.100000,-0.100000)"
fill="#ffffff" stroke="none">
<path d="M0 2374 l0 -2375 1603 4 c1450 3 1613 5 1717 21 372 55 612 150 817
323 l51 43 84 -52 c247 -153 592 -257 1024 -307 177 -21 506 -31 704 -21 675
34 1144 214 1482 568 291 306 465 786 490 1350 l4 72 -491 0 -491 0 -12 -47
c-20 -72 -86 -201 -144 -278 -119 -157 -314 -264 -578 -316 -320 -63 -875 -40
-1180 48 -111 32 -269 108 -347 167 -227 172 -335 490 -303 897 37 492 234
745 676 874 347 101 934 110 1252 19 112 -32 250 -98 330 -159 133 -100 239
-271 297 -477 l16 -58 491 0 490 0 -6 98 c-54 778 -321 1320 -806 1634 -317
206 -682 311 -1178 338 -293 16 -663 -8 -940 -61 -324 -61 -562 -153 -786
-303 l-97 -64 -41 44 c-161 175 -451 297 -841 354 -232 34 -484 40 -1909 40
l-1378 0 0 -2376z m3005 965 c157 -49 215 -120 223 -270 9 -185 -68 -287 -247
-325 -54 -11 -232 -14 -978 -14 l-913 0 0 315 0 316 933 -4 c807 -2 939 -5
982 -18z m168 -1338 c92 -24 125 -40 168 -83 53 -53 72 -110 72 -208 0 -66 -6
-98 -23 -138 -25 -57 -83 -116 -139 -139 -96 -40 -148 -42 -1173 -43 l-988 0
0 315 0 315 1003 0 c961 0 1007 -1 1080 -19z"/>
</g>
</svg>
